<svg xmlns="http://www.w3.org/2000/svg" viewBox="0 0 1400 900" font-family="-apple-system, 'SF Pro Text', 'SF Pro Display', 'Helvetica Neue', system-ui, sans-serif">
  <defs>
    <linearGradient id="bgi" x1="0" y1="0" x2="1" y2="1"><stop offset="0" stop-color="#0b0b0d"/><stop offset="1" stop-color="#141418"/></linearGradient>
    <linearGradient id="titan" x1="0" y1="0" x2="1" y2="1"><stop offset="0" stop-color="#2b2d31"/><stop offset="0.5" stop-color="#1a1b1f"/><stop offset="1" stop-color="#2b2d31"/></linearGradient>
    <linearGradient id="iosSky" x1="0" y1="0" x2="0" y2="1"><stop offset="0" stop-color="#141a2a"/><stop offset="1" stop-color="#0a0e18"/></linearGradient>
    <linearGradient id="iosRoad" x1="0" y1="0" x2="0" y2="1"><stop offset="0" stop-color="#1c2332"/><stop offset="1" stop-color="#06080e"/></linearGradient>
    <linearGradient id="iosCar" x1="0" y1="0" x2="0" y2="1"><stop offset="0" stop-color="#3a4b66"/><stop offset="1" stop-color="#0e1520"/></linearGradient>
    <linearGradient id="blueBtn" x1="0" y1="0" x2="0" y2="1"><stop offset="0" stop-color="#4aa3ff"/><stop offset="1" stop-color="#1a73e8"/></linearGradient>
    <filter id="softshadow2" x="-20%" y="-20%" width="140%" height="140%"><feGaussianBlur stdDeviation="18" result="b"/><feOffset dy="10"/><feComponentTransfer><feFuncA type="linear" slope="0.6"/></feComponentTransfer><feMerge><feMergeNode/><feMergeNode in="SourceGraphic"/></feMerge></filter>
    <clipPath id="screenClip"><rect x="0" y="0" width="1160" height="540" rx="44"/></clipPath>
  </defs>
  <rect width="1400" height="900" fill="url(#bgi)"/>
  <g font-size="12" fill="#3b3e47" letter-spacing="3">
    <text x="40" y="40">INSIGHTLPR  ·  iOS 18  ·  iPhone 16 PRO · DARK</text>
    <text x="1360" y="40" text-anchor="end">FIELD COMMANDER · NVIN · 2026</text>
  </g>
  <g filter="url(#softshadow2)" transform="translate(100,130)">
    <rect x="0" y="0" width="1200" height="600" rx="60" fill="url(#titan)"/>
    <rect x="8" y="8" width="1184" height="584" rx="54" fill="#0a0b0f"/>
    <rect x="-3" y="120" width="6" height="60" rx="3" fill="#2b2d31"/>
    <rect x="-3" y="200" width="6" height="100" rx="3" fill="#2b2d31"/>
    <rect x="-3" y="320" width="6" height="100" rx="3" fill="#2b2d31"/>
    <rect x="1197" y="160" width="6" height="50" rx="3" fill="#2b2d31"/>
    <rect x="1197" y="230" width="6" height="80" rx="3" fill="#2b2d31"/>
    <g transform="translate(1040,18)">
      <rect x="0" y="0" width="130" height="130" rx="30" fill="#17191f" stroke="#2b2d31"/>
      <circle cx="35" cy="38" r="20" fill="#0a0b0f" stroke="#2b2d31" stroke-width="1.5"/>
      <circle cx="35" cy="38" r="11" fill="#1b2230"/>
      <circle cx="32" cy="35" r="3" fill="#7aa2ff" opacity="0.8"/>
      <circle cx="95" cy="38" r="20" fill="#0a0b0f" stroke="#2b2d31" stroke-width="1.5"/>
      <circle cx="95" cy="38" r="11" fill="#1b2230"/>
      <circle cx="65" cy="92" r="20" fill="#0a0b0f" stroke="#2b2d31" stroke-width="1.5"/>
      <circle cx="65" cy="92" r="11" fill="#1b2230"/>
      <circle cx="62" cy="89" r="3" fill="#7aa2ff" opacity="0.8"/>
      <rect x="100" y="82" width="20" height="20" rx="6" fill="#0f141c"/>
      <circle cx="110" cy="92" r="5" fill="#e6e9ef"/>
    </g>
    <g transform="translate(20,30)" clip-path="url(#screenClip)">
      <rect x="0" y="0" width="1160" height="540" fill="#000"/>
      <g transform="translate(490,10)">
        <rect x="0" y="0" width="180" height="34" rx="17" fill="#000"/>
        <circle cx="18" cy="17" r="6" fill="#ef4444"/>
        <text x="32" y="21" font-size="11" fill="#fecaca" font-weight="600">● REC · 14:27</text>
        <circle cx="160" cy="17" r="5" fill="#00d27a"/>
      </g>
      <text x="40" y="28" font-size="13" fill="#e6e9ef" font-weight="600">14:27</text>
      <g transform="translate(1010,10)" fill="#e6e9ef">
        <text x="0" y="20" font-size="12">5G</text>
        <text x="30" y="20" font-size="12">●●●</text>
        <rect x="66" y="8" width="28" height="14" rx="3" fill="none" stroke="#e6e9ef" stroke-width="1"/>
        <rect x="68" y="10" width="22" height="10" fill="#30d158"/>
        <text x="102" y="20" font-size="12">87%</text>
      </g>
      <g transform="translate(0,56)">
        <rect x="0" y="0" width="720" height="484" fill="url(#iosSky)"/>
        <rect x="0" y="280" width="720" height="204" fill="url(#iosRoad)"/>
        <g fill="#e6e9ef" opacity="0.3">
          <rect x="80" y="360" width="60" height="7"/>
          <rect x="210" y="380" width="80" height="8"/>
          <rect x="360" y="402" width="100" height="9"/>
          <rect x="540" y="428" width="130" height="10"/>
        </g>
        <g transform="translate(200,175)">
          <rect x="0" y="60" width="320" height="150" rx="22" fill="url(#iosCar)" stroke="#050811" stroke-width="2"/>
          <rect x="25" y="80" width="270" height="55" rx="10" fill="#080d17" opacity="0.9"/>
          <rect x="40" y="92" width="105" height="35" rx="3" fill="#1b2638"/>
          <rect x="160" y="92" width="125" height="35" rx="3" fill="#1b2638"/>
          <circle cx="60" cy="215" r="24" fill="#05080e"/>
          <circle cx="60" cy="215" r="10" fill="#1b2638"/>
          <circle cx="260" cy="215" r="24" fill="#05080e"/>
          <circle cx="260" cy="215" r="10" fill="#1b2638"/>
          <ellipse cx="8" cy="148" rx="10" ry="16" fill="#ffe9a8" opacity="0.8"/>
          <rect x="125" y="178" width="110" height="26" rx="3" fill="#f5f7fa" stroke="#cbd5e1"/>
          <text x="180" y="197" text-anchor="middle" font-size="15" font-weight="800" fill="#0f172a" letter-spacing="2" font-family="ui-monospace,monospace">6PDW 905</text>
        </g>
        <g>
          <rect x="320" y="350" width="120" height="30" rx="4" fill="none" stroke="#ff9f0a" stroke-width="2.5"/>
          <g stroke="#ff9f0a" stroke-width="3" fill="none">
            <path d="M320 356 L320 350 L326 350"/>
            <path d="M434 350 L440 350 L440 356"/>
            <path d="M320 374 L320 380 L326 380"/>
            <path d="M434 380 L440 380 L440 374"/>
          </g>
          <rect x="322" y="363" width="116" height="1.5" fill="#ff9f0a" opacity="0.9"/>
        </g>
        <g>
          <rect x="20" y="20" width="130" height="32" rx="16" fill="#1c1c1e" fill-opacity="0.7" stroke="#30d158" stroke-width="0.8"/>
          <circle cx="36" cy="36" r="5" fill="#30d158"/>
          <text x="50" y="40" font-size="13" fill="#d1fadf" font-weight="600">OCR 0.94</text>
        </g>
        <g>
          <rect x="160" y="20" width="130" height="32" rx="16" fill="#1c1c1e" fill-opacity="0.7" stroke="#ff9f0a" stroke-width="0.8"/>
          <text x="225" y="40" text-anchor="middle" font-size="13" fill="#ffe4b5" font-weight="600">KDA 0.71 ◆</text>
        </g>
        <g>
          <rect x="300" y="20" width="160" height="32" rx="16" fill="#1c1c1e" fill-opacity="0.7"/>
          <text x="380" y="40" text-anchor="middle" font-size="12" fill="#aeb3be">🛰 Ghost · Tor + Kyber</text>
        </g>
        <g transform="translate(0,404)">
          <rect x="0" y="0" width="720" height="80" fill="#000" fill-opacity="0.35"/>
          <g font-size="12">
            <text x="120" y="30" text-anchor="middle" fill="#8e9098">PHOTO</text>
            <text x="210" y="30" text-anchor="middle" fill="#ffcc00" font-weight="700">SCAN</text>
            <text x="300" y="30" text-anchor="middle" fill="#8e9098">VIDEO</text>
            <text x="390" y="30" text-anchor="middle" fill="#8e9098">MAGIC</text>
          </g>
          <circle cx="360" cy="52" r="22" fill="none" stroke="#fff" stroke-width="3"/>
          <circle cx="360" cy="52" r="16" fill="#fff"/>
          <circle cx="70" cy="52" r="18" fill="#1c1c1e"/>
          <text x="70" y="57" text-anchor="middle" fill="#fff" font-size="14">⚡</text>
          <circle cx="650" cy="52" r="18" fill="#1c1c1e"/>
          <text x="650" y="57" text-anchor="middle" fill="#fff" font-size="13">⟲</text>
        </g>
      </g>
      <g transform="translate(736,68)">
        <rect x="0" y="0" width="400" height="190" rx="18" fill="#1c1c1e"/>
        <text x="20" y="26" font-size="11" fill="#8e9098" letter-spacing="1.5">DETECTION · 14:27:03</text>
        <text x="20" y="66" font-size="32" font-weight="800" fill="#fff" letter-spacing="3" font-family="ui-monospace,monospace">6PDW 905</text>
        <g transform="translate(20,76)">
          <rect x="0" y="0" width="160" height="24" rx="12" fill="#3a2400"/>
          <circle cx="14" cy="12" r="5" fill="#ff9f0a"/>
          <text x="24" y="16" font-size="12" fill="#ffd8a0" font-weight="600">ANOMALY · REVIEW</text>
        </g>
        <text x="20" y="124" font-size="12" fill="#aeb3be">VIN / plate mismatch detected.</text>
        <text x="20" y="142" font-size="12" fill="#aeb3be">Registered: 2020 Toyota Camry · CA</text>
        <text x="20" y="160" font-size="12" fill="#aeb3be">Observed profile: Honda Civic chassis</text>
        <rect x="0" y="202" width="400" height="126" rx="18" fill="#1c1c1e"/>
        <text x="20" y="224" font-size="11" fill="#8e9098" letter-spacing="1.5">ODASI · KDA FUSION</text>
        <g font-size="12" fill="#e6e9ef">
          <text x="20" y="250">NADE</text><rect x="78" y="242" width="220" height="10" rx="5" fill="#2a2a2c"/><rect x="78" y="242" width="176" height="10" rx="5" fill="#ff9f0a"/><text x="310" y="250" fill="#ffd8a0">0.80</text>
          <text x="20" y="272">GIE </text><rect x="78" y="264" width="220" height="10" rx="5" fill="#2a2a2c"/><rect x="78" y="264" width="152" height="10" rx="5" fill="#ff9f0a"/><text x="310" y="272" fill="#ffd8a0">0.69</text>
          <text x="20" y="294">BNE </text><rect x="78" y="286" width="220" height="10" rx="5" fill="#2a2a2c"/><rect x="78" y="286" width="140" height="10" rx="5" fill="#ff9f0a"/><text x="310" y="294" fill="#ffd8a0">0.64</text>
        </g>
        <rect x="20" y="304" width="360" height="18" rx="9" fill="#3a2400" stroke="#ff9f0a"/>
        <text x="200" y="317" text-anchor="middle" font-size="11" font-weight="700" fill="#ffd8a0">FUSED  0.71  ·  AWAITING OPERATOR</text>
        <g transform="translate(0,342)">
          <rect x="0" y="0" width="193" height="44" rx="12" fill="url(#blueBtn)"/>
          <text x="96" y="28" text-anchor="middle" font-size="14" fill="#fff" font-weight="700">Dispatch</text>
          <rect x="207" y="0" width="193" height="44" rx="12" fill="#2c2c2e"/>
          <text x="303" y="28" text-anchor="middle" font-size="14" fill="#fff" font-weight="600">Capture Moment</text>
        </g>
        <rect x="0" y="400" width="400" height="70" rx="18" fill="#1c1c1e"/>
        <text x="20" y="422" font-size="11" fill="#8e9098" letter-spacing="1.5">LUMINNODE SWARM · 7/7 · BLE MESH</text>
        <g transform="translate(20,434)">
          <circle cx="12" cy="16" r="10" fill="#30d158"/>
          <text x="12" y="20" text-anchor="middle" font-size="9" fill="#052a0f" font-weight="800">P</text>
          <circle cx="42" cy="16" r="7" fill="#64d2ff"/>
          <circle cx="72" cy="16" r="7" fill="#64d2ff"/>
          <circle cx="102" cy="16" r="7" fill="#64d2ff"/>
          <circle cx="132" cy="16" r="7" fill="#64d2ff"/>
          <circle cx="162" cy="16" r="7" fill="#64d2ff"/>
          <circle cx="192" cy="16" r="7" fill="#ff9f0a"/>
          <text x="220" y="20" font-size="11" fill="#aeb3be">-58 dBm · 21 ms · AES-GCM</text>
        </g>
      </g>
      <rect x="530" y="522" width="100" height="5" rx="2.5" fill="#e6e9ef" opacity="0.85"/>
    </g>
  </g>
  <g font-size="13" fill="#8e9098">
    <text x="60" y="200" fill="#30d158" font-weight="700" letter-spacing="1.5">CORE ML OCR</text>
    <text x="60" y="222">Neural Engine · on-device · &lt;150 ms</text>
    <text x="60" y="400" fill="#64d2ff" font-weight="700" letter-spacing="1.5">LIDAR + ARKit</text>
    <text x="60" y="422">Spatial plate localization</text>
    <text x="60" y="600" fill="#ffcc00" font-weight="700" letter-spacing="1.5">SECURE ENCLAVE</text>
    <text x="60" y="622">QRC Vault · Kyber-1024 · SHA-256</text>
    <text x="1340" y="200" text-anchor="end" fill="#ff9f0a" font-weight="700" letter-spacing="1.5">ANOMALY TRIAGE</text>
    <text x="1340" y="222" text-anchor="end">VIN / plate mismatch flagged</text>
    <text x="1340" y="400" text-anchor="end" fill="#64d2ff" font-weight="700" letter-spacing="1.5">NVIN NETWORK</text>
    <text x="1340" y="422" text-anchor="end">5G SA · Tor failover · signed</text>
    <text x="1340" y="600" text-anchor="end" fill="#30d158" font-weight="700" letter-spacing="1.5">DTA PAYOUTS</text>
    <text x="1340" y="622" text-anchor="end">Apple Pay bridge · 0.042 ETH today</text>
  </g>
  <text x="700" y="870" text-anchor="middle" font-size="14" fill="#4b4e58" letter-spacing="4">FIELD COMMANDER · iOS REFERENCE BUILD · v2.4</text>
</svg>
